<?xml version="1.0" encoding="UTF-8"?>
<svg version="1.1" xmlns="http://www.w3.org/2000/svg" width="1280" height="665">
<path d="M0 0 C12.61902659 9.09343824 19.8129906 23.48480711 27.66796875 36.52734375 C28.1578125 37.33993652 28.64765625 38.1525293 29.15234375 38.98974609 C31.06174802 42.16137674 32.96708754 45.33538541 34.86621094 48.51318359 C37.8191984 53.45431154 40.78899359 58.38486759 43.77734375 63.3046875 C44.13517944 63.89393005 44.49301514 64.48317261 44.86169434 65.090271 C46.69221109 68.10308575 48.52569789 71.11404859 50.36328125 74.12255859 C53.71888318 79.6229491 57.04047431 85.1366504 60.24609375 90.7265625 C61.05723633 92.12745117 61.05723633 92.12745117 61.88476562 93.55664062 C62.87906184 95.2805096 63.8603945 97.01194645 64.82617188 98.75195312 C65.26380859 99.50669922 65.70144531 100.26144531 66.15234375 101.0390625 C66.52069336 101.69350342 66.88904297 102.34794434 67.26855469 103.0222168 C69.28295013 105.18878133 70.73549284 105.21470845 73.66796875 105.52734375 C77.06614218 104.95972651 77.06614218 104.95972651 80.75756836 103.90356445 C81.45581632 103.71794858 82.15406427 103.53233271 82.87347126 103.34109211 C85.191979 102.72204048 87.50599153 102.08763359 89.8203125 101.453125 C91.45976071 101.01207903 93.09947608 100.57202509 94.73944092 100.13290405 C98.22324431 99.19808474 101.70519527 98.25674895 105.18588257 97.31039429 C110.60891569 95.83667435 116.03699293 94.38219971 121.46606445 92.9309082 C135.69330625 89.1239457 149.91566935 85.30049451 164.11045837 81.3740387 C168.26593633 80.22734926 172.42597036 79.09791575 176.58718872 77.97225952 C179.25057122 77.24354426 181.90506256 76.48747389 184.56030273 75.72973633 C198.0673498 72.00494411 214.19790788 69.36197526 227.46875 75.2578125 C233.25833313 78.5999342 238.20286773 82.72679997 240.21875 89.33203125 C242.3516994 99.75566224 240.13665696 109.56179807 234.85546875 118.64453125 C229.37195286 126.88996508 222.89241514 134.25713385 216.32763672 141.64990234 C213.66092876 144.66652255 211.03746377 147.71972453 208.41796875 150.77734375 C207.91861816 151.35935547 207.41926758 151.94136719 206.90478516 152.54101562 C203.96517144 155.97786291 201.07921385 159.45191036 198.23046875 162.96484375 C194.12881604 168.01588443 189.88205864 172.92862771 185.61010742 177.83520508 C180.68796358 183.49133396 175.8373212 189.20493966 171.00634766 194.93896484 C168.75029427 197.61643352 166.49075716 200.29095002 164.23046875 202.96484375 C163.78348633 203.49432617 163.33650391 204.02380859 162.87597656 204.56933594 C160.42836374 207.46419279 157.96585271 210.34503722 155.484375 213.2109375 C154.95191162 213.82718994 154.41944824 214.44344238 153.87084961 215.07836914 C152.85472149 216.2529774 151.83618759 217.42551094 150.81469727 218.59545898 C149.40904936 220.22148696 148.03209923 221.86636597 146.66796875 223.52734375 C146.17393555 224.1193457 145.67990234 224.71134766 145.17089844 225.32128906 C142.38180361 228.70999261 142.38180361 228.70999261 141.86645508 232.88842773 C142.76728112 235.85432133 143.96867951 238.40106528 145.40625 241.1484375 C145.9727124 242.23688965 146.5391748 243.3253418 147.12280273 244.44677734 C147.73583252 245.60773926 148.3488623 246.76870117 148.98046875 247.96484375 C149.62021422 249.18683316 150.25961417 250.40900353 150.89868164 251.63134766 C155.1885935 259.81554011 159.5943131 267.9341705 164.05151367 276.02832031 C168.93001868 284.92408626 173.57933755 293.93544742 178.21777344 302.95776367 C178.84565321 304.17889936 179.47358227 305.40000971 180.1015625 306.62109375 C180.40683868 307.21477249 180.71211487 307.80845123 181.02664185 308.42012024 C183.33662051 312.90409812 185.69593053 317.36014142 188.07202148 321.80932617 C195.88419752 336.45139779 201.72961639 349.35844233 197.10546875 366.21484375 C193.60734414 376.47600928 186.90338989 383.80217643 177.30078125 388.74609375 C164.43750217 394.65054972 150.66641637 393.75805858 137.2578125 390.0390625 C136.27873932 389.77537872 135.29966614 389.51169495 134.29092407 389.24002075 C121.61587629 385.77275832 109.08156718 381.82829711 96.54296875 377.90234375 C94.10822441 377.14404467 91.67332906 376.38623026 89.23828125 375.62890625 C77.37499812 371.93804224 77.37499812 371.93804224 72.79534912 370.48406982 C70.57749153 369.80558434 68.34555358 369.17237813 66.10552979 368.57110596 C64.94035828 368.24938416 63.77518677 367.92766235 62.57470703 367.59619141 C61.51567169 367.31812653 60.45663635 367.04006165 59.36550903 366.75357056 C55.99432979 365.22112621 55.16911244 363.87028652 53.66796875 360.52734375 C53.00349426 358.19560242 53.00349426 358.19560242 52.59301758 355.7722168 C52.35310844 354.40005257 52.35310844 354.40005257 52.10835266 353.00016785 C51.94884628 352.02300308 51.7893399 351.04583832 51.625 350.0390625 C51.36501472 348.51331352 51.36501472 348.51331352 51.09977722 346.95674133 C50.73607661 344.8083461 50.37749081 342.65907955 50.02368164 340.5090332 C49.48376422 337.23482837 48.92582401 333.96408107 48.36523438 330.69335938 C48.01324451 328.6004415 47.66229882 326.50734769 47.3125 324.4140625 C47.14692093 323.44297043 46.98134186 322.47187836 46.81074524 321.47135925 C45.93233155 316.07633841 45.49872958 310.99324625 45.66796875 305.52734375 C66.28015499 310.8718417 86.84822686 316.35462936 107.35546875 322.08984375 C108.30378571 322.35486694 109.25210266 322.61989014 110.22915649 322.89294434 C112.92138916 323.64600087 115.61317726 324.40061586 118.3046875 325.15625 C119.10925385 325.38186111 119.91382019 325.60747223 120.74276733 325.83992004 C123.73888182 326.68380542 126.71452423 327.54286224 129.66796875 328.52734375 C121.53163793 312.08463018 113.06869062 295.8445708 104.37988281 279.68774414 C101.47264388 274.27898636 98.5774402 268.86383098 95.68969727 263.44464111 C94.9959376 262.14278493 94.30174959 260.84115693 93.60717773 259.53973389 C91.4727641 255.53837307 89.35040126 251.53099465 87.24349976 247.51507568 C86.57296866 246.2407535 85.89888201 244.9682953 85.22109985 243.69781494 C84.2782728 241.92870616 83.34975538 240.15199374 82.421875 238.375 C81.62245483 236.85918335 81.62245483 236.85918335 80.80688477 235.31274414 C79.61707909 232.40288499 79.25212872 230.62987481 79.66796875 227.52734375 C81.36737044 225.17843251 83.03016719 223.14610202 84.98046875 221.02734375 C86.09171516 219.77784986 87.20238002 218.52783853 88.3125 217.27734375 C88.87662598 216.64957031 89.44075195 216.02179688 90.02197266 215.375 C92.45959156 212.63873482 94.81375059 209.83530908 97.16796875 207.02734375 C101.48128294 201.91457573 105.82965158 196.83263342 110.1875 191.7578125 C113.53089215 187.86150796 116.85583915 183.95024603 120.16796875 180.02734375 C123.96320639 175.53325279 127.77592872 171.05474493 131.60546875 166.58984375 C132.10143555 166.01137695 132.59740234 165.43291016 133.10839844 164.83691406 C135.67208113 161.84843993 138.2398855 158.86360135 140.8125 155.8828125 C146.57184136 149.20089749 152.21252169 142.46135317 157.66796875 135.52734375 C150.51937358 136.7322075 143.54207753 138.2323965 136.55004883 140.14111328 C135.60544296 140.39499817 134.6608371 140.64888306 133.68760681 140.91046143 C131.6579859 141.45639873 129.62888234 142.00426245 127.60025978 142.55389786 C124.38502641 143.4243625 121.16809583 144.2882709 117.9506073 145.15036011 C108.81027521 147.60028797 99.67239521 150.0592266 90.53735352 152.52880859 C84.93132539 154.04386135 79.32275788 155.54918018 73.71249962 157.04848862 C71.58291818 157.61969223 69.45433059 158.19461504 67.32679176 158.77338028 C64.35279941 159.58218079 61.37573505 160.37857955 58.39770508 161.17236328 C57.5273764 161.41234039 56.65704773 161.6523175 55.76034546 161.89956665 C50.57826885 163.26434835 46.03254191 163.94724005 40.66796875 163.52734375 C38.50073242 161.46484375 38.50073242 161.46484375 36.8359375 158.52734375 C36.19237305 157.42849854 35.54880859 156.32965332 34.88574219 155.19750977 C34.20867285 153.97429348 33.53192435 152.75089955 32.85546875 151.52734375 C32.12832167 150.26511493 31.39811324 149.00464535 30.66503906 147.74584961 C29.11242438 145.07142782 27.57589203 142.38865057 26.05029297 139.69873047 C22.50040464 133.45676884 18.81023655 127.29796342 15.13308716 121.13046265 C13.9195266 119.09245994 12.70999548 117.05211968 11.50170898 115.01098633 C3.87035881 102.12561676 -3.96718397 89.3757679 -12.01074219 76.7434082 C-12.6346283 75.7634639 -13.2585144 74.78351959 -13.90130615 73.77388 C-14.37344543 73.03252304 -14.84558472 72.29116608 -15.33203125 71.52734375 C-18.85927943 89.8394615 -22.31066838 108.16080955 -25.49346542 126.53626251 C-25.93787886 129.09984167 -26.38468803 131.66299173 -26.83230591 134.22601318 C-26.98021135 135.0731979 -27.1281168 135.92038261 -27.28050423 136.79323959 C-27.57866612 138.50106176 -27.87685709 140.20887886 -28.17507744 141.91669083 C-28.93570535 146.27924792 -29.68983924 150.6427917 -30.43334961 155.00830078 C-31.17258648 159.34589536 -31.92798664 163.68039441 -32.69454384 168.01324081 C-32.97921359 169.63970421 -33.25791021 171.26722549 -33.53032494 172.89578629 C-33.90610287 175.13812785 -34.30241574 177.37590194 -34.70385742 179.61376953 C-34.92257004 180.88116974 -35.14128265 182.14856995 -35.36662292 183.45437622 C-36.47769853 186.9910137 -37.08994569 187.83387872 -40.33203125 189.52734375 C-42.59597044 190.39356307 -44.89381525 191.17284165 -47.20727539 191.89648438 C-47.89291061 192.11333893 -48.57854584 192.33019348 -49.28495789 192.55361938 C-51.56007869 193.27113578 -53.83854616 193.9773452 -56.1171875 194.68359375 C-57.73177958 195.19034825 -59.34615031 195.69780852 -60.96031189 196.20593262 C-65.23714202 197.55016911 -69.51687907 198.88490753 -73.79730225 200.21765137 C-78.01177703 201.53152401 -82.22357383 202.85391523 -86.43554688 204.17578125 C-93.0833955 206.26101506 -99.73276121 208.34133425 -106.38330078 210.41796875 C-116.36865705 213.53626424 -126.34897338 216.67050685 -136.328125 219.80859375 C-137.09774126 220.05057999 -137.86735752 220.29256622 -138.66029549 220.54188538 C-142.88431212 221.87003873 -147.10822658 223.19851643 -151.33203125 224.52734375 C-149.28666896 226.57270604 -148.11416533 227.14995799 -145.46948242 228.16870117 C-144.26551064 228.63719734 -144.26551064 228.63719734 -143.03721619 229.11515808 C-142.15868484 229.45098404 -141.2801535 229.78681 -140.375 230.1328125 C-138.99647606 230.66742851 -138.99647606 230.66742851 -137.59010315 231.21284485 C-135.6040733 231.9827515 -133.6171751 232.75042108 -131.6295166 233.51611328 C-126.39920084 235.53211598 -121.17640572 237.56741705 -115.953125 239.6015625 C-114.89578156 240.01296478 -113.83843811 240.42436707 -112.74905396 240.84823608 C-103.3092426 244.52562857 -93.89276277 248.25885631 -84.49893188 252.05215454 C-82.89099092 252.70093863 -81.28224745 253.34773745 -79.67269897 253.99252319 C-77.44763817 254.88437574 -75.22538961 255.78287394 -73.00390625 256.68359375 C-72.35088028 256.94425125 -71.69785431 257.20490875 -71.02503967 257.47346497 C-68.31350406 258.58179414 -66.42688598 259.43248902 -64.33203125 261.52734375 C-70.87902309 266.49307061 -77.57822359 271.0059372 -84.56665039 275.31298828 C-90.86400792 279.20531379 -97.07188956 283.22843615 -103.26953125 287.27734375 C-104.22827148 287.90326416 -105.18701172 288.52918457 -106.17480469 289.17407227 C-107.10196289 289.78049561 -108.02912109 290.38691895 -108.984375 291.01171875 C-109.88655762 291.59759766 -110.78874023 292.18347656 -111.71826172 292.78710938 C-113.42958202 293.92649767 -115.11783058 295.10151535 -116.77783203 296.31445312 C-117.53950684 296.86423828 -118.30118164 297.41402344 -119.0859375 297.98046875 C-119.74021729 298.47192383 -120.39449707 298.96337891 -121.06860352 299.46972656 C-124.89692159 301.2585599 -128.37279033 301.16173163 -132.38612366 299.86224365 C-134.71299093 298.90833536 -136.98123387 297.86961869 -139.25390625 296.79296875 C-140.10381638 296.40346542 -140.9537265 296.0139621 -141.82939148 295.61265564 C-144.58602266 294.34628936 -147.33388452 293.06200369 -150.08203125 291.77734375 C-151.97991404 290.90137118 -153.87843712 290.02678457 -155.77758789 289.15356445 C-158.62388899 287.84450422 -161.46967556 286.53443557 -164.31312561 285.2191925 C-169.76129019 282.69990808 -175.22303977 280.21850429 -180.71875 277.8046875 C-181.33632172 277.53320892 -181.95389343 277.26173035 -182.59017944 276.98202515 C-185.3560984 275.76828559 -188.12462359 274.56075963 -190.89550781 273.35839844 C-206.12267362 266.67020939 -220.26486564 258.75345103 -228.33203125 243.52734375 C-228.74195313 242.77195313 -229.151875 242.0165625 -229.57421875 241.23828125 C-233.24699199 233.46213376 -233.63870657 225.07104909 -231.671875 216.7265625 C-227.4616615 205.00722362 -219.09081025 197.35024585 -208.11279297 191.94116211 C-196.35267339 186.59768785 -184.17943684 182.65828463 -171.89453125 178.71484375 C-169.64566757 177.98610706 -167.39697321 177.25684763 -165.1484375 176.52709961 C-152.58029712 172.45800273 -139.98954189 168.46083172 -127.390625 164.48828125 C-126.73593294 164.28180025 -126.08124088 164.07531925 -125.40670967 163.86258125 C-118.37878188 161.6465359 -111.3486705 159.43776446 -104.31469727 157.2409668 C-103.13992325 156.87278839 -101.96514923 156.50460999 -100.754776 156.12527466 C-98.55329966 155.43540973 -96.35098287 154.748219 -94.14768982 154.06417847 C-93.17276077 153.75819733 -92.19783173 153.45221619 -91.19335938 153.13696289 C-90.3464856 152.87291153 -89.49961182 152.60886017 -88.6270752 152.33680725 C-85.34566023 151.2051064 -85.34566023 151.2051064 -82.33203125 149.52734375 C-78.31169881 140.44382738 -77.68765121 128.70945944 -76.0193367 118.96881866 C-75.48513995 115.85410088 -74.94423292 112.74061428 -74.40145874 109.62738037 C-72.86036245 100.78354907 -71.32766012 91.93829533 -69.80761719 83.09082031 C-68.87319005 77.65478179 -67.92813872 72.22067492 -66.97669601 66.78759003 C-66.61954831 64.73610605 -66.26630803 62.68393731 -65.91731644 60.63105011 C-62.12649778 38.34478945 -57.28354507 13.73542955 -37.6796875 -0.3828125 C-25.62562674 -7.87013658 -12.03202006 -7.59810982 0 0 Z " fill="#E2591B" transform="translate(1036.33203125,5.47265625)"/>
<path d="M0 0 C20.26056682 17.53437434 32.01065621 43.18452944 34.05078125 69.79296875 C35.84503261 110.40829499 23.71441828 144.40517351 -3.76171875 174.4296875 C-5.37250023 176.21469012 -6.89407907 178.01371101 -8.3828125 179.8984375 C-30.36073058 205.25757375 -65.05966574 218.91232388 -97.8203125 221.7109375 C-126.27097792 223.28426021 -151.18830076 216.59769205 -174.8203125 200.7109375 C-174.94115204 201.62389587 -175.06199158 202.53685425 -175.18649292 203.47747803 C-176.33172496 212.1271016 -177.47890117 220.77646469 -178.62820244 229.42554855 C-179.21884653 233.87096246 -179.8087671 238.31646976 -180.39697266 242.76220703 C-180.9658032 247.06129273 -181.53661461 251.36011138 -182.10873795 255.65876007 C-182.32549143 257.28990782 -182.54155906 258.92114687 -182.75689316 260.5524826 C-186.27066714 287.16129214 -186.27066714 287.16129214 -187.8203125 288.7109375 C-189.44706028 288.80434184 -191.07785301 288.82838921 -192.70727539 288.82446289 C-193.74827896 288.82438736 -194.78928253 288.82431183 -195.86183167 288.82423401 C-196.9941069 288.81907272 -198.12638214 288.81391144 -199.29296875 288.80859375 C-201.02213783 288.80647133 -201.02213783 288.80647133 -202.78623962 288.80430603 C-206.48512314 288.79868755 -210.18394714 288.78613192 -213.8828125 288.7734375 C-216.38346267 288.76842488 -218.88411379 288.76386156 -221.38476562 288.75976562 C-227.52996838 288.74871212 -233.67513619 288.73195602 -239.8203125 288.7109375 C-241.14486157 284.90926057 -240.61579194 281.68375259 -240.1010437 277.73669434 C-239.96673453 276.68314373 -239.96673453 276.68314373 -239.82971203 275.60830927 C-239.52754951 273.25286614 -239.21469527 270.89896888 -238.90185547 268.54492188 C-238.68289364 266.85587502 -238.46457151 265.16674514 -238.24684143 263.47753906 C-237.65221454 258.88007022 -237.04811311 254.28389157 -236.44199514 249.68792534 C-235.80578465 244.85427672 -235.17704092 240.01965603 -234.54714966 235.18518066 C-233.484673 227.04006757 -232.41599769 218.8957853 -231.34375 210.75195312 C-230.11359378 201.40816583 -228.89333811 192.06312751 -227.67856681 182.71732855 C-226.50310058 173.67600793 -225.32003791 164.63569562 -224.13382339 155.59577942 C-223.63309428 151.77870358 -223.13493937 147.96130593 -222.63903427 144.14360046 C-220.40985385 127.00093506 -218.17788215 109.86940148 -215.17626953 92.84179688 C-214.98639906 91.75734032 -214.79652859 90.67288376 -214.60090446 89.55556488 C-209.77931176 63.32944341 -197.94050249 40.25198854 -179.76171875 20.80859375 C-177.67350384 18.61332334 -177.67350384 18.61332334 -175.4453125 15.6484375 C-171.37413 11.09259042 -166.62095921 7.47040499 -161.8203125 3.7109375 C-160.88960938 2.96457031 -159.95890625 2.21820313 -159 1.44921875 C-112.02672836 -35.22065135 -46.70465268 -37.90710037 0 0 Z M-143.9453125 57.3359375 C-157.13013234 74.57762499 -162.11805709 94.19721611 -160.8203125 115.7109375 C-158.98692191 129.32153205 -152.46673859 140.18053372 -142.8203125 149.7109375 C-142.19382812 150.35933594 -141.56734375 151.00773437 -140.921875 151.67578125 C-129.42587454 162.75947789 -112.41463062 166.72196231 -96.85791016 166.77685547 C-75.92158204 166.09954795 -57.38323384 155.00234674 -42.8203125 140.7109375 C-41.77230469 139.69966797 -41.77230469 139.69966797 -40.703125 138.66796875 C-28.12898723 125.62902822 -21.11682162 106.38698855 -20.5078125 88.4609375 C-20.95872035 71.7298829 -26.66235215 55.8772806 -38.4765625 43.8203125 C-51.31167184 32.26871409 -67.30603043 25.89392821 -84.6953125 26.42578125 C-108.39530094 28.58840519 -128.56022703 39.29722295 -143.9453125 57.3359375 Z " fill="#3B393D" transform="translate(443.8203125,375.2890625)"/>
<path d="M0 0 C1.38321405 1.15691616 2.75869466 2.32316278 4.125 3.5 C4.764375 3.99628906 5.40375 4.49257813 6.0625 5.00390625 C12.88637466 10.49327316 17.90664759 17.53964159 23.125 24.5 C23.75414307 25.33144531 23.75414307 25.33144531 24.39599609 26.1796875 C31.125 35.09011657 31.125 35.09011657 31.125 37.5 C29.71411133 38.75830078 29.71411133 38.75830078 27.70703125 40.1953125 C26.95760254 40.73841064 26.20817383 41.28150879 25.43603516 41.84106445 C24.61151855 42.42976318 23.78700195 43.01846191 22.9375 43.625 C21.19018113 44.89023688 19.44413362 46.15723101 17.69921875 47.42578125 C16.78446777 48.0904541 15.8697168 48.75512695 14.92724609 49.43994141 C10.3162616 52.82968589 5.78668697 56.32432849 1.25 59.8125 C-6.31016361 65.60996712 -13.95169312 71.2079954 -21.875 76.5 C-24.72140698 73.0566644 -27.18000582 69.5260285 -29.5625 65.75 C-35.14181296 57.34480125 -41.24900984 50.11473904 -50.875 46.5 C-51.9475 46.0875 -53.02 45.675 -54.125 45.25 C-64.648033 43.1453934 -73.94036252 44.35087237 -83.19921875 49.890625 C-88.41765893 53.55607282 -91.83013242 57.36539725 -93.875 63.5 C-94.60973079 69.99711937 -94.44394112 75.04040521 -90.55078125 80.4140625 C-89.99777344 81.10242188 -89.44476563 81.79078125 -88.875 82.5 C-88.20855469 83.35335937 -87.54210937 84.20671875 -86.85546875 85.0859375 C-81.77084495 91.44394344 -76.35833854 97.48663752 -70.875 103.5 C-69.52065179 105.02067167 -68.16648998 106.54150936 -66.8125 108.0625 C-58.21664082 117.60842782 -49.44519946 127.02755115 -40.3125 136.0625 C-36.28533048 140.04953162 -32.54397712 144.18444085 -28.875 148.5 C-28.0190625 149.46679688 -27.163125 150.43359375 -26.28125 151.4296875 C-9.15642853 170.92444867 -0.35327789 192.24796022 -1.7109375 218.30371094 C-3.93586366 248.08858555 -20.79089836 275.11145783 -42.875 294.5 C-59.4412358 308.18139069 -79.94197053 315.74018403 -100.875 319.5 C-101.89078125 319.68433594 -102.9065625 319.86867188 -103.953125 320.05859375 C-128.95197928 322.87220982 -155.83667499 320.88061024 -176.57421875 305.3359375 C-177.33347656 304.73007812 -178.09273437 304.12421875 -178.875 303.5 C-179.64457031 302.89414062 -180.41414063 302.28828125 -181.20703125 301.6640625 C-195.25568107 289.93691018 -204.23668799 271.69258018 -209.875 254.5 C-209.875 253.18 -209.875 251.86 -209.875 250.5 C-208.96024902 250.01756836 -208.04549805 249.53513672 -207.10302734 249.03808594 C-203.60021273 247.19018487 -200.09843096 245.34033364 -196.59695435 243.48989868 C-195.03654477 242.66553251 -193.47589734 241.8416164 -191.91500854 241.01815796 C-184.18380679 236.93876813 -176.45986157 232.85386367 -168.82421875 228.59765625 C-167.81375488 228.03530273 -166.80329102 227.47294922 -165.76220703 226.89355469 C-163.91576932 225.86006025 -162.07405191 224.81807485 -160.23779297 223.76660156 C-159.02373779 223.08742676 -159.02373779 223.08742676 -157.78515625 222.39453125 C-157.09558838 222.00112549 -156.40602051 221.60771973 -155.69555664 221.20239258 C-153.875 220.5 -153.875 220.5 -150.875 221.5 C-149.81933594 223.21484375 -149.81933594 223.21484375 -148.859375 225.4375 C-148.3188147 226.65034668 -148.3188147 226.65034668 -147.76733398 227.88769531 C-147.39036377 228.74975586 -147.01339355 229.61181641 -146.625 230.5 C-143.41731532 237.52865107 -140.30879905 243.89408967 -134.875 249.5 C-134.28460938 250.1290625 -133.69421875 250.758125 -133.0859375 251.40625 C-125.97974239 258.3077399 -117.63745421 261.75281364 -107.75 262 C-95.17818757 261.47559948 -82.85597092 256.48097092 -73.875 247.5 C-66.97525599 238.40563862 -64.54212631 231.03119167 -65.875 219.5 C-70.75842931 203.73349964 -85.12841983 190.86393618 -96.20654297 179.26123047 C-99.08187105 176.22602169 -101.85677949 173.10311921 -104.640625 169.984375 C-107.33787202 166.9853381 -110.07303399 164.02293237 -112.8125 161.0625 C-114.34457038 159.40429045 -115.8764056 157.74586394 -117.40820312 156.08740234 C-118.78695518 154.59528419 -120.16687542 153.1042457 -121.546875 151.61328125 C-142.99260897 128.26940002 -158.31063393 105.68310356 -157.04541016 72.95556641 C-155.25989941 47.22681696 -137.38440517 25.00112041 -118.875 8.5 C-115.6920381 5.82690603 -112.45637256 3.60580705 -108.875 1.5 C-108.27880859 1.14599121 -107.68261719 0.79198242 -107.06835938 0.42724609 C-75.47102977 -18.07688192 -30.61170435 -23.24608948 0 0 Z " fill="#3B393D" transform="translate(209.875,278.5)"/>
<path d="M0 0 C19.65499825 18.70592513 30.74027661 44.42061259 31.78269958 71.50502014 C31.95183976 81.37203354 30.88878059 91.14154954 29.80859375 100.93359375 C29.72286291 101.72022148 29.63713207 102.50684921 29.54880333 103.31731415 C27.37168996 123.21408076 24.73888572 143.05172192 22.0715332 162.88769531 C21.37946597 168.03448294 20.69567968 173.18233507 20.01401234 178.33050919 C19.4826709 182.3369878 18.94729014 186.34291826 18.41061974 190.34868622 C18.15620485 192.25121385 17.90303145 194.15390793 17.65113258 196.05677032 C17.30384518 198.67546361 16.95115803 201.2933715 16.59692383 203.91113281 C16.49459442 204.69097534 16.39226501 205.47081787 16.28683472 206.27429199 C15.55962258 211.58490867 15.55962258 211.58490867 14.4453125 212.69921875 C12.78792807 212.7926879 11.12656606 212.81666852 9.46655273 212.81274414 C8.40552841 212.81266861 7.34450409 212.81259308 6.25132751 212.81251526 C5.0971785 212.80735397 3.94302948 212.80219269 2.75390625 212.796875 C1.57893082 212.79546005 0.40395538 212.7940451 -0.80662537 212.79258728 C-4.57683814 212.78696867 -8.34699254 212.77441301 -12.1171875 212.76171875 C-14.66601477 212.75670615 -17.21484297 212.75214283 -19.76367188 212.74804688 C-26.02736383 212.73699319 -32.29102149 212.72023696 -38.5546875 212.69921875 C-37.05490572 198.24581708 -35.34874532 183.83293438 -33.4044838 169.43336868 C-33.07090268 166.95978556 -32.73998341 164.48586 -32.40988159 162.0118103 C-32.18537185 160.33013808 -31.96085398 158.64846695 -31.73632812 156.96679688 C-31.62437166 156.12810373 -31.5124152 155.28941059 -31.39706612 154.42530251 C-30.82735096 150.16684378 -30.25111425 145.90943438 -29.66235352 141.65356445 C-22.0741543 90.79878005 -22.0741543 90.79878005 -39.5 43.91015625 C-48.92355329 32.50269701 -63.17827833 27.1883353 -77.5546875 25.69921875 C-100.45172226 23.92111115 -121.07540938 32.69614718 -138.2421875 47.38671875 C-152.47848593 60.80248125 -161.48462633 79.7184692 -162.79296875 99.2578125 C-163.11346395 116.00790388 -158.88848142 131.20101775 -147.9765625 144.24609375 C-137.05705924 155.30649382 -121.52716466 162.77104873 -105.90942383 163.08007812 C-85.88947146 163.03026176 -67.75788015 157.12619681 -52.5546875 143.69921875 C-51.79027344 143.04179688 -51.02585937 142.384375 -50.23828125 141.70703125 C-48.32898341 140.05341329 -46.43539321 138.38519199 -44.5546875 136.69921875 C-43.41140234 140.12907424 -43.6780779 141.97856817 -44.14379883 145.54418945 C-44.29758499 146.74586258 -44.45137115 147.94753571 -44.6098175 149.18562317 C-44.87063362 151.1356147 -44.87063362 151.1356147 -45.13671875 153.125 C-45.31314514 154.47391789 -45.48913882 155.82289243 -45.66471863 157.17192078 C-46.03453066 160.00120035 -46.40920065 162.82978247 -46.78735352 165.65795898 C-47.27016673 169.27140165 -47.74158393 172.8862188 -48.20940113 176.50162983 C-48.57133566 179.28956862 -48.93906449 182.07671971 -49.30853844 184.86366844 C-49.56968777 186.84069823 -49.82624363 188.81833303 -50.0827179 190.79597473 C-50.24596054 192.00710434 -50.40920319 193.21823395 -50.57739258 194.46606445 C-50.7180867 195.52735062 -50.85878082 196.58863678 -51.0037384 197.68208313 C-52.49770351 205.86341125 -52.49770351 205.86341125 -55.1484375 207.95947266 C-56.09203125 208.31404541 -56.09203125 208.31404541 -57.0546875 208.67578125 C-57.76834473 208.95212402 -58.48200195 209.2284668 -59.21728516 209.51318359 C-59.98862793 209.7808252 -60.7599707 210.0484668 -61.5546875 210.32421875 C-62.35052246 210.61635254 -63.14635742 210.90848633 -63.96630859 211.20947266 C-94.29667561 221.94688709 -129.97459922 222.94037064 -159.40234375 208.9140625 C-183.95329278 196.63858799 -204.30991402 175.54822757 -213.36865234 149.34472656 C-220.67281984 126.10462008 -221.56130022 99.15438738 -214.5546875 75.69921875 C-214.37276855 75.04791992 -214.19084961 74.39662109 -214.00341797 73.72558594 C-204.03189761 38.31287646 -178.26869917 6.99384218 -146.5546875 -11.30078125 C-130.11444265 -20.30449159 -112.30517358 -27.27510547 -93.5546875 -29.30078125 C-92.00394531 -29.48253906 -92.00394531 -29.48253906 -90.421875 -29.66796875 C-55.83300378 -32.95832541 -25.88729332 -23.3143972 0 0 Z " fill="#3B393D" transform="translate(714.5546875,376.30078125)"/>
<path d="M0 0 C-1.37349276 14.02994069 -3.12342324 27.99609897 -4.98939896 41.96837997 C-5.48776481 45.70109168 -5.98274492 49.43423939 -6.47689819 53.16751099 C-7.70196672 62.41819406 -8.93189469 71.66822912 -10.16314697 80.91809082 C-11.21010197 88.78390354 -12.25445995 96.65005167 -13.29514694 104.51669693 C-13.78232866 108.1913957 -14.27327851 111.86557876 -14.76431274 115.5397644 C-15.06133739 117.78283072 -15.35817199 120.02592221 -15.65478516 122.26904297 C-15.79190414 123.28720093 -15.92902313 124.30535889 -16.07029724 125.35437012 C-16.19361923 126.29299896 -16.31694122 127.23162781 -16.44400024 128.19869995 C-16.60602653 129.41578298 -16.60602653 129.41578298 -16.77132607 130.65745354 C-17.01165037 133.11934698 -17.03904802 135.52798532 -17 138 C-9.66798406 130.07375354 -9.66798406 130.07375354 -2.5 122 C0.90744919 118.06832786 4.43129673 114.24638756 7.95532227 110.41967773 C10.48740116 107.66526572 12.99035268 104.89257501 15.4375 102.0625 C19.06144644 97.87967989 22.83255746 93.83728193 26.59521484 89.77978516 C29.84864787 86.26517971 33.03408762 82.70391333 36.16796875 79.08203125 C38.99864261 75.86508207 41.90767016 72.7202932 44.80834961 69.56665039 C49.24236493 64.74396603 53.6257091 59.87690243 58 55 C60.21616611 52.53279915 62.43359384 50.06682566 64.65625 47.60546875 C66.35275598 45.7195196 68.03913116 43.82662107 69.71875 41.92578125 C70.62491688 40.9087801 71.53116515 39.89185146 72.4375 38.875 C73.26121094 37.94429688 74.08492187 37.01359375 74.93359375 36.0546875 C77 34 77 34 79 34 C80.29008476 41.27596972 81.57084561 48.55353681 82.84521484 55.83227539 C83.2796043 58.30693478 83.716107 60.78122421 84.15478516 63.25512695 C84.78587231 66.8162616 85.40928497 70.37866853 86.03125 73.94140625 C86.32654602 75.59336754 86.32654602 75.59336754 86.62780762 77.27870178 C89.04281557 91.22499477 89.04281557 91.22499477 86.71484375 95.1875 C86.12832031 95.785625 85.54179688 96.38375 84.9375 97 C84.29683594 97.6703125 83.65617187 98.340625 82.99609375 99.03125 C82.33738281 99.6809375 81.67867187 100.330625 81 101 C80.12021484 101.88171875 80.12021484 101.88171875 79.22265625 102.78125 C78.06312439 103.93815254 76.89895853 105.09042705 75.73046875 106.23828125 C74.00548519 107.99441576 72.40817536 109.81364395 70.8125 111.6875 C67.70384674 115.30139713 64.38885354 118.65286826 61 122 C57.1010267 125.8512064 53.39175684 129.76421751 49.83984375 133.94140625 C47.0450884 137.06844674 44.03972167 139.98109593 41.05541992 142.92504883 C37.74911293 146.20396967 34.65750786 149.60052348 31.63671875 153.140625 C28.90728152 156.24136992 25.95999337 159.12097909 23 162 C24.60384406 166.849049 27.3535902 170.5924707 30.3125 174.6875 C30.84375488 175.43153076 31.37500977 176.17556152 31.92236328 176.94213867 C36.25482731 182.99934204 40.62981582 189.02628066 45.0012207 195.05541992 C49.66359066 201.4992616 54.22146668 208.01319198 58.76904297 214.53833008 C62.62703038 220.06447746 66.53999891 225.54656785 70.5 231 C75.67253046 238.12324146 80.73625341 245.31691991 85.76953125 252.5390625 C89.62738441 258.0649453 93.5401714 263.54680538 97.5 269 C102.66330405 276.11053551 107.72155591 283.2889894 112.7409668 290.50170898 C117.40272611 297.18650827 122.16503386 303.79431759 127.00195312 310.35351562 C127.51306641 311.05283203 128.02417969 311.75214844 128.55078125 312.47265625 C129.22620972 313.38930054 129.22620972 313.38930054 129.9152832 314.32446289 C131 316 131 316 132 319 C123.08988836 319.04637315 114.17981837 319.0818945 105.26961231 319.10362434 C101.13209071 319.11405441 96.99465177 319.12819942 92.85717773 319.15087891 C88.8630918 319.17263501 84.86908531 319.18457447 80.87494469 319.18975449 C79.35234006 319.19344527 77.8297397 319.20065248 76.30716896 319.21146011 C74.17188805 319.22601195 72.03693397 319.22797642 69.90161133 319.22705078 C68.6869368 319.231492 67.47226227 319.23593323 66.22077942 319.24050903 C62.27408389 318.94579282 59.32333324 318.39889214 56.54193115 315.4586792 C55.95221527 314.54472382 55.95221527 314.54472382 55.35058594 313.61230469 C54.89010864 312.91275665 54.42963135 312.21320862 53.9552002 311.49246216 C53.46982788 310.7266684 52.98445557 309.96087463 52.484375 309.171875 C51.96033081 308.36829559 51.43628662 307.56471619 50.8963623 306.73678589 C49.16889919 304.08210483 47.45969283 301.41615318 45.75 298.75 C44.541376 296.88633932 43.33139611 295.02355731 42.12011719 293.16162109 C39.62522693 289.32392699 37.13653312 285.48232421 34.65234375 281.63769531 C29.74287204 274.04794717 24.76651542 266.50260724 19.78839111 258.95779419 C17.22756537 255.07459481 14.67260155 251.18754311 12.1171875 247.30078125 C8.47141603 241.75689838 4.82458826 236.2137126 1.17663574 230.67126465 C-0.92365253 227.47989266 -3.0232442 224.28806277 -5.12268066 221.09613037 C-6.10636238 219.60086543 -7.09031992 218.1057819 -8.07458496 216.61090088 C-13.44899817 208.44794753 -18.78772666 200.26785677 -24 192 C-25.53392514 199.15705761 -26.6586537 206.3099718 -27.58813477 213.56835938 C-27.73312408 214.6785141 -27.8781134 215.78866882 -28.02749634 216.9324646 C-28.33944518 219.3242826 -28.64984373 221.71630321 -28.95883369 224.10850525 C-29.44749023 227.89084167 -29.94046419 231.67259351 -30.43455505 235.45422363 C-31.57015211 244.15198353 -32.6996217 252.85053416 -33.82841492 261.54917908 C-34.94889128 270.18353637 -36.07208043 278.817528 -37.2002697 287.45088196 C-37.68676592 291.18315061 -38.16895161 294.91596047 -38.65101624 298.64880371 C-38.94754798 300.92149631 -39.24428446 303.1941622 -39.54125977 305.46679688 C-39.67478348 306.50988007 -39.80830719 307.55296326 -39.94587708 308.62765503 C-40.07057373 309.57516632 -40.19527039 310.52267761 -40.32374573 311.49890137 C-40.43084146 312.3247448 -40.53793718 313.15058823 -40.64827824 314.00145721 C-41 316 -41 316 -42 318 C-61.8 318 -81.6 318 -102 318 C-95.91420525 269.20641612 -89.7676754 220.42163302 -83.44437408 171.65820122 C-81.7903779 158.89779424 -80.14854454 146.13603036 -78.53369141 133.37060547 C-77.10396494 122.06879655 -75.65296448 110.76996362 -74.17588282 99.47424233 C-73.40060803 93.53995391 -72.63582757 87.60475391 -71.89683533 81.6658287 C-71.20738099 76.12773129 -70.48949056 70.59407767 -69.74934196 65.06253433 C-69.4835421 63.03778908 -69.22819113 61.01164035 -68.98411751 58.98416138 C-68.64942847 56.21712814 -68.277377 53.45762273 -67.89562988 50.69674683 C-67.80795711 49.89641395 -67.72028434 49.09608108 -67.62995481 48.2714957 C-66.82797832 42.88029536 -65.01680712 40.44789859 -60.68154383 37.16070187 C-60.12663436 36.77767025 -59.5717249 36.39463864 -59 36 C-58.26692627 35.47978271 -57.53385254 34.95956543 -56.77856445 34.42358398 C-55.83049927 33.84072632 -55.83049927 33.84072632 -54.86328125 33.24609375 C-54.13157715 32.79097412 -53.39987305 32.33585449 -52.64599609 31.86694336 C-51.87594238 31.39522705 -51.10588867 30.92351074 -50.3125 30.4375 C-48.6229466 29.38662363 -46.93416968 28.33449806 -45.24609375 27.28125 C-44.38097168 26.74242187 -43.51584961 26.20359375 -42.62451172 25.6484375 C-38.34337507 22.95948544 -34.1090415 20.19979823 -29.875 17.4375 C-29.05177246 16.9022168 -28.22854492 16.36693359 -27.38037109 15.81542969 C-23.26493625 13.13776154 -19.15942345 10.44619265 -15.06640625 7.734375 C-13.89585693 6.96395874 -13.89585693 6.96395874 -12.70166016 6.17797852 C-11.22753483 5.20757361 -9.75694988 4.23176203 -8.29052734 3.24975586 C-3.33811171 0 -3.33811171 0 0 0 Z " fill="#3B393D" transform="translate(987,274)"/>
<path d="M0 0 C1.14145981 0.0028299 2.28291962 0.00565979 3.45896912 0.00857544 C7.07562098 0.01969774 10.69201776 0.04478769 14.30859375 0.0703125 C16.77278286 0.08035257 19.23697589 0.08947662 21.70117188 0.09765625 C27.71623167 0.119611 33.73114448 0.15300876 39.74609375 0.1953125 C38.45705182 13.13040152 36.89980316 26.00644722 35.12109375 38.8828125 C34.88905545 40.57873947 34.65728373 42.27470293 34.42578125 43.97070312 C33.86893529 48.04599715 33.30856223 52.12079085 32.74609375 56.1953125 C31.60132568 56.2046582 30.45655762 56.21400391 29.27709961 56.22363281 C25.00701795 56.26367449 20.73764605 56.32947202 16.46801758 56.40283203 C14.62436072 56.43095972 12.78058512 56.45221489 10.93676758 56.46630859 C8.27754278 56.48785241 5.61973341 56.5345592 2.9609375 56.5859375 C1.73551491 56.58778046 1.73551491 56.58778046 0.4853363 56.58966064 C-5.23089465 56.73411666 -8.45489977 58.10740986 -13.25390625 61.1953125 C-13.91390625 61.1953125 -14.57390625 61.1953125 -15.25390625 61.1953125 C-18.73306368 67.61837236 -20.65913923 74.05485687 -21.55322266 81.27026367 C-21.65641973 82.03973894 -21.75961679 82.80921421 -21.86594105 83.60200691 C-22.20484957 86.14632688 -22.53019031 88.69218586 -22.85546875 91.23828125 C-23.09505003 93.05814761 -23.33547218 94.87790344 -23.57667542 96.69755554 C-24.22152635 101.58031329 -24.85469527 106.46452105 -25.48571396 111.34908295 C-26.1426878 116.41805558 -26.81081995 121.48555655 -27.4777832 126.55322266 C-28.95518054 137.79475363 -30.4171432 149.03826053 -31.87581635 160.28223419 C-32.47495238 164.89841191 -33.07557603 169.51439583 -33.67626953 174.13037109 C-33.7887352 174.9947923 -33.90120087 175.8592135 -34.01707458 176.74982929 C-34.55913823 180.91604993 -35.10141173 185.08224313 -35.64398193 189.24839783 C-35.84974797 190.82876372 -36.05549774 192.40913173 -36.26123047 193.98950195 C-36.36054871 194.75237613 -36.45986694 195.5152503 -36.56219482 196.30124187 C-37.14432618 200.77610158 -37.72300104 205.25139174 -38.29864979 209.72708988 C-38.56730516 211.81431973 -38.83692647 213.90142227 -39.10691833 215.98847961 C-39.43146818 218.49888434 -39.75423698 221.00952025 -40.07484436 223.52043152 C-40.21667648 224.61438736 -40.35850861 225.7083432 -40.50463867 226.83544922 C-40.62610764 227.78088593 -40.7475766 228.72632263 -40.87272644 229.70040894 C-41.25390625 232.1953125 -41.25390625 232.1953125 -42.25390625 236.1953125 C-60.73390625 236.1953125 -79.21390625 236.1953125 -98.25390625 236.1953125 C-94.40289294 204.84806418 -94.40289294 204.84806418 -92.94921875 193.34765625 C-92.85103977 192.57089979 -92.75286079 191.79414333 -92.6517067 190.9938488 C-89.81989592 168.62150438 -86.89448896 146.26130726 -83.93902588 123.90499878 C-83.31711045 119.19934142 -82.69890196 114.49322045 -82.08392334 109.78665161 C-81.34644499 104.14494984 -80.6008049 98.50438157 -79.84930801 92.86453056 C-79.57211693 90.77499164 -79.29754565 88.68510309 -79.02590561 86.59483528 C-77.74454548 76.74994738 -76.3629616 66.96663674 -74.25878906 57.25927734 C-74.10753948 56.54978754 -73.9562899 55.84029774 -73.800457 55.10930824 C-71.16885014 43.61343843 -65.11455131 33.88339388 -57.25390625 25.1953125 C-56.58875 24.43734375 -55.92359375 23.679375 -55.23828125 22.8984375 C-40.68030673 7.2620945 -21.11097231 -0.19974566 0 0 Z " fill="#3B393D" transform="translate(853.25390625,353.8046875)"/>
<path d="M0 0 C4.95 0 9.9 0 15 0 C14.31013201 8.83031029 12.69332426 17.31251032 11 26 C19.91 26 28.82 26 38 26 C38.28875 23.916875 38.5775 21.83375 38.875 19.6875 C41.47798043 1.52201957 41.47798043 1.52201957 43 0 C45.35313555 -0.07271741 47.70833668 -0.08370868 50.0625 -0.0625 C51.35285156 -0.05347656 52.64320313 -0.04445312 53.97265625 -0.03515625 C54.97167969 -0.02355469 55.97070312 -0.01195312 57 0 C56.45195738 8.17023933 55.42766904 16.13274593 53.96875 24.1875 C53.77277222 25.29303223 53.57679443 26.39856445 53.37487793 27.53759766 C52.96388451 29.85055045 52.55032319 32.16304833 52.13427734 34.47509766 C51.49683212 38.01760501 50.86687379 41.56138084 50.23828125 45.10546875 C49.83636526 47.3620554 49.43403634 49.61856854 49.03125 51.875 C48.84268433 52.93227295 48.65411865 53.9895459 48.45983887 55.07885742 C48.28295532 56.06088135 48.10607178 57.04290527 47.92382812 58.0546875 C47.76918091 58.91562012 47.61453369 59.77655273 47.4552002 60.66357422 C47.0407764 62.79070519 46.52560516 64.89757938 46 67 C41.05 67 36.1 67 31 67 C31.47743373 63.60391482 31.95688024 60.20813448 32.4375 56.8125 C32.57220703 55.85279297 32.70691406 54.89308594 32.84570312 53.90429688 C32.97783203 52.97294922 33.10996094 52.04160156 33.24609375 51.08203125 C33.42676392 49.80162964 33.42676392 49.80162964 33.61108398 48.49536133 C34.00238695 45.98468486 34.50167147 43.49164264 35 41 C26.09 40.67 17.18 40.34 8 40 C7.71125 42.248125 7.4225 44.49625 7.125 46.8125 C4.68668903 65.31331097 4.68668903 65.31331097 3 67 C0.64686445 67.07271741 -1.70833668 67.08370868 -4.0625 67.0625 C-5.99802734 67.04896484 -5.99802734 67.04896484 -7.97265625 67.03515625 C-8.97167969 67.02355469 -9.97070312 67.01195312 -11 67 C-10.41303275 58.78226439 -9.19582089 50.77599123 -7.71484375 42.67578125 C-7.3840255 40.83466011 -7.3840255 40.83466011 -7.04652405 38.9563446 C-6.34793793 35.07425017 -5.64282875 31.19337443 -4.9375 27.3125 C-4.4593204 24.66488737 -3.98257125 22.01701786 -3.50585938 19.36914062 C-2.34219729 12.91185467 -1.17268752 6.45565271 0 0 Z " fill="#3B393D" transform="translate(630,237)"/>
<path d="M0 0 C5.61 0 11.22 0 17 0 C19.86053777 11.61804174 21.96540363 23.34907208 24.0715332 35.12329102 C24.6917752 38.58637029 25.31922525 42.04809308 25.94726562 45.50976562 C26.34417996 47.71606853 26.74067948 49.9224461 27.13671875 52.12890625 C27.3241716 53.16116837 27.51162445 54.19343048 27.70475769 55.25697327 C27.96051323 56.69513649 27.96051323 56.69513649 28.22143555 58.16235352 C28.44768867 59.4225808 28.44768867 59.4225808 28.67851257 60.70826721 C29 63 29 63 29 67 C23.72 67 18.44 67 13 67 C12.34 62.38 11.68 57.76 11 53 C3.74 53 -3.52 53 -11 53 C-11.66 54.98 -12.32 56.96 -13 59 C-14.2459004 61.71915488 -15.62499215 64.34165149 -17 67 C-22.61 67 -28.22 67 -34 67 C-33.07074354 62.35371772 -31.92159246 59.60371784 -29.7109375 55.49609375 C-29.37530792 54.86809372 -29.03967834 54.24009369 -28.69387817 53.59306335 C-27.59365006 51.5378891 -26.48439403 49.48773864 -25.375 47.4375 C-24.61072395 46.01383329 -23.84705878 44.58983849 -23.08398438 43.16552734 C-21.51226982 40.23427846 -19.93691772 37.30503135 -18.35839844 34.37744141 C-16.08798098 30.16590456 -13.82746713 25.94912579 -11.5703125 21.73046875 C-7.55467692 14.22561949 -7.55467692 14.22561949 -5.56005859 10.50952148 C-4.97305176 9.41583252 -4.38604492 8.32214355 -3.78125 7.1953125 C-3.26626953 6.23641113 -2.75128906 5.27750977 -2.22070312 4.28955078 C-1.46319822 2.86877458 -0.72005815 1.4401163 0 0 Z M5 22 C2.36 27.28 -0.28 32.56 -3 38 C0.96 38 4.92 38 9 38 C8.71937057 35.51911645 8.42609401 33.04090815 8.125 30.5625 C8.04636719 29.85544922 7.96773438 29.14839844 7.88671875 28.41992188 C7.66072324 26.60326568 7.33699273 24.79937478 7 23 C6.34 22.67 5.68 22.34 5 22 Z " fill="#3B393D" transform="translate(481,237)"/>
<path d="M0 0 C5.61 0 11.22 0 17 0 C24.99119072 41.76473113 24.99119072 41.76473113 27.5 55.4375 C27.65952148 56.29746582 27.81904297 57.15743164 27.98339844 58.04345703 C28.53385815 61.073528 29 63.91316342 29 67 C23.72 67 18.44 67 13 67 C12.34 62.38 11.68 57.76 11 53 C-1.4045227 51.7079112 -1.4045227 51.7079112 -12.72900391 55.32324219 C-15.62953231 59.00404895 -16.4764486 62.38453546 -18 67 C-23.61 67 -29.22 67 -35 67 C-33.57652341 63.44130853 -32.13825107 60.1953629 -30.3828125 56.81640625 C-29.86420654 55.81722168 -29.34560059 54.81803711 -28.8112793 53.78857422 C-28.25480713 52.72396973 -27.69833496 51.65936523 -27.125 50.5625 C-26.54854736 49.45664551 -25.97209473 48.35079102 -25.37817383 47.21142578 C-20.60540339 38.08810405 -15.7011146 29.04090112 -10.74609375 20.015625 C-7.1021118 13.37632805 -3.54982103 6.69004733 0 0 Z M5 21 C2.36 26.61 -0.28 32.22 -3 38 C0.96 38 4.92 38 9 38 C8.01 32.39 7.02 26.78 6 21 C5.67 21 5.34 21 5 21 Z " fill="#3B3A3D" transform="translate(318,237)"/>
<path d="M0 0 C12.54 0 25.08 0 38 0 C37.47942079 4.68521286 36.92450033 9.37749836 36 14 C28.41 14 20.82 14 13 14 C12.34 17.96 11.68 21.92 11 26 C17.93 26 24.86 26 32 26 C30.125 37.75 30.125 37.75 29 40 C22.07 40 15.14 40 8 40 C7.67 43.63 7.34 47.26 7 51 C14.26 51.33 21.52 51.66 29 52 C28.34 56.62 27.68 61.24 27 66 C14.46 66 1.92 66 -11 66 C-9.72159785 57.05118497 -8.39416636 48.15552391 -6.8359375 39.2578125 C-6.63900299 38.12342743 -6.44206848 36.98904236 -6.23916626 35.82028198 C-5.61973385 32.2548444 -4.99742275 28.68991663 -4.375 25.125 C-3.95032885 22.68362714 -3.52584808 20.24222115 -3.1015625 17.80078125 C-2.07025572 11.86673873 -1.03504336 5.9333967 0 0 Z " fill="#3B393D" transform="translate(726,237)"/>
<path d="M0 0 C4.16653186 -0.08777806 8.33282276 -0.14065272 12.5 -0.1875 C13.67304688 -0.21263672 14.84609375 -0.23777344 16.0546875 -0.26367188 C30.1981943 -0.38285873 30.1981943 -0.38285873 35.51318359 4.34643555 C40.02852154 9.41465549 41.41953159 13.96873642 41.25390625 20.59375 C40.59801177 26.80961153 38.59224201 32.64945494 34 37 C27.02496664 41.60640102 21.56030764 43.14707381 13.1875 43.0625 C12.02605469 43.05347656 10.86460937 43.04445313 9.66796875 43.03515625 C8.78753906 43.02355469 7.90710938 43.01195312 7 43 C6.96261719 43.55945313 6.92523438 44.11890625 6.88671875 44.6953125 C6.263159 52.30029611 4.67776322 59.55948483 3 67 C-1.95 67 -6.9 67 -12 67 C-9.13507985 49.63326753 -6.26796021 32.26754309 -3.1875 14.9375 C-2.9810083 13.76864258 -2.7745166 12.59978516 -2.56176758 11.39550781 C-2.27402466 9.7901416 -2.27402466 9.7901416 -1.98046875 8.15234375 C-1.81442139 7.22413818 -1.64837402 6.29593262 -1.47729492 5.33959961 C-1 3 -1 3 0 0 Z M12 14 C11.66223316 15.7491497 11.32996329 17.49936145 11 19.25 C10.814375 20.22453125 10.62875 21.1990625 10.4375 22.203125 C9.89696983 25.18684279 9.89696983 25.18684279 10 29 C15.64788053 29.3457886 19.07569129 28.56064053 24 26 C25.54163175 22.9167365 25.29747535 20.39121901 25 17 C23.65844217 14.84520133 23.65844217 14.84520133 21 14 C17.98178886 13.77142635 15.01987345 13.82577653 12 14 Z " fill="#3B393D" transform="translate(390,237)"/>
<path d="M0 0 C0.12036664 5.77759884 -0.1679418 11.27959989 -1 17 C-5.67213115 15.18306011 -5.67213115 15.18306011 -7.875 13.953125 C-12.35259223 11.94479319 -17.57186751 12.28609485 -22.21875 13.65234375 C-28.48884482 16.46182854 -33.46716339 21.57580534 -36 28 C-36.65219956 33.86979605 -36.8265484 39.22445158 -34.3125 44.625 C-30.42081188 48.62186888 -27.77987301 50.17201215 -22.1875 50.4375 C-17.63985159 50.32193943 -14.48367189 49.17069161 -10.59375 46.875 C-9 46 -9 46 -7 46 C-7.08700798 48.43922361 -7.19386002 50.87478414 -7.3125 53.3125 C-7.33505859 54.00279297 -7.35761719 54.69308594 -7.38085938 55.40429688 C-7.65147576 60.49680524 -7.65147576 60.49680524 -9.3203125 62.90625 C-14.93175707 66.56021391 -22.54294535 66.65071093 -29 66 C-37.40302269 64.14619306 -43.68785689 60.33512409 -48.67578125 53.265625 C-53.32259929 45.31531685 -54.20856241 36.660442 -52.30859375 27.76171875 C-49.2174031 16.54806897 -43.43577024 8.81976342 -34 2 C-22.80647512 -3.77998978 -11.6986117 -4.74726272 0 0 Z " fill="#3B393D" transform="translate(589,239)"/>
<path d="M0 0 C2.64 0 5.28 0 8 0 C8.77183035 1.68704421 9.54240925 3.37466099 10.3125 5.0625 C10.74175781 6.00222656 11.17101563 6.94195313 11.61328125 7.91015625 C13.1149092 11.25603713 14.5553413 14.6291297 16 18 C18.31 12.06 20.62 6.12 23 0 C25.64 0 28.28 0 31 0 C31 9.57 31 19.14 31 29 C29.35 29 27.7 29 26 29 C25.67 23.06 25.34 17.12 25 11 C22.69 16.94 20.38 22.88 18 29 C16.35 28.67 14.7 28.34 13 28 C11.60857957 25.38920027 10.64109414 23.19440006 9.6875 20.4375 C8.800625 17.983125 7.91375 15.52875 7 13 C6.67 18.28 6.34 23.56 6 29 C4.02 29 2.04 29 0 29 C0 19.43 0 9.86 0 0 Z " fill="#3B393C" transform="translate(1158,564)"/>
<path d="M0 0 C7.26 0 14.52 0 22 0 C22 1.65 22 3.3 22 5 C19.36 5 16.72 5 14 5 C14 12.92 14 20.84 14 29 C12.02 29 10.04 29 8 29 C8 21.08 8 13.16 8 5 C5.36 5 2.72 5 0 5 C0 3.35 0 1.7 0 0 Z " fill="#3C393D" transform="translate(1131,564)"/>
</svg>
